<svg width="40" height="40" viewBox="0 0 40 40" fill="none" xmlns="http://www.w3.org/2000/svg">
<path d="M21.7125 3.33325C23.5875 3.33825 24.5392 3.34825 25.3608 3.37159L25.6842 3.38325C26.0575 3.39659 26.4258 3.41325 26.8708 3.43325C28.6442 3.51659 29.8542 3.79659 30.9158 4.20825C32.0158 4.63159 32.9425 5.20492 33.8692 6.12992C34.7167 6.96308 35.3724 7.9709 35.7908 9.08325C36.2025 10.1449 36.4825 11.3549 36.5658 13.1299C36.5858 13.5733 36.6025 13.9416 36.6158 14.3166L36.6258 14.6399C36.6508 15.4599 36.6608 16.4116 36.6642 18.2866L36.6658 19.5299V21.7133C36.6699 22.9289 36.6572 24.1446 36.6275 25.3599L36.6175 25.6833C36.6042 26.0583 36.5875 26.4266 36.5675 26.8699C36.4842 28.6449 36.2008 29.8533 35.7908 30.9166C35.3736 32.0295 34.7177 33.0376 33.8692 33.8699C33.0358 34.7171 32.028 35.3728 30.9158 35.7916C29.8542 36.2033 28.6442 36.4833 26.8708 36.5666C26.4754 36.5852 26.0798 36.6019 25.6842 36.6166L25.3608 36.6266C24.5392 36.6499 23.5875 36.6616 21.7125 36.6649L20.4692 36.6666H18.2875C17.0713 36.6708 15.855 36.658 14.6392 36.6283L14.3158 36.6183C13.9202 36.6033 13.5246 36.586 13.1292 36.5666C11.3558 36.4833 10.1458 36.2033 9.0825 35.7916C7.97029 35.3739 6.96287 34.718 6.13084 33.8699C5.28258 33.0371 4.62621 32.0292 4.2075 30.9166C3.79584 29.8549 3.51584 28.6449 3.4325 26.8699C3.41394 26.4744 3.39727 26.0789 3.3825 25.6833L3.37417 25.3599C3.34346 24.1446 3.32957 22.9289 3.3325 21.7133V18.2866C3.32785 17.0709 3.34008 15.8552 3.36917 14.6399L3.38084 14.3166C3.39417 13.9416 3.41084 13.5733 3.43084 13.1299C3.51417 11.3549 3.79417 10.1466 4.20584 9.08325C4.62436 7.96976 5.28204 6.96162 6.1325 6.12992C6.96432 5.28238 7.97108 4.62656 9.0825 4.20825C10.1458 3.79659 11.3542 3.51659 13.1292 3.43325C13.5725 3.41325 13.9425 3.39659 14.3158 3.38325L14.6392 3.37325C15.8545 3.34364 17.0702 3.33086 18.2858 3.33492L21.7125 3.33325ZM19.9992 11.6666C17.789 11.6666 15.6694 12.5446 14.1066 14.1074C12.5438 15.6702 11.6658 17.7898 11.6658 19.9999C11.6658 22.2101 12.5438 24.3297 14.1066 25.8925C15.6694 27.4553 17.789 28.3333 19.9992 28.3333C22.2093 28.3333 24.3289 27.4553 25.8917 25.8925C27.4545 24.3297 28.3325 22.2101 28.3325 19.9999C28.3325 17.7898 27.4545 15.6702 25.8917 14.1074C24.3289 12.5446 22.2093 11.6666 19.9992 11.6666ZM19.9992 14.9999C20.6558 14.9998 21.306 15.129 21.9127 15.3802C22.5193 15.6314 23.0706 15.9996 23.5349 16.4638C23.9993 16.928 24.3677 17.4791 24.6191 18.0857C24.8705 18.6923 24.9999 19.3425 25 19.9991C25.0001 20.6557 24.8709 21.3059 24.6197 21.9126C24.3685 22.5192 24.0003 23.0705 23.5361 23.5349C23.0719 23.9992 22.5208 24.3676 21.9142 24.619C21.3076 24.8704 20.6574 24.9998 20.0008 24.9999C18.6748 24.9999 17.403 24.4731 16.4653 23.5355C15.5276 22.5978 15.0008 21.326 15.0008 19.9999C15.0008 18.6738 15.5276 17.4021 16.4653 16.4644C17.403 15.5267 18.6748 14.9999 20.0008 14.9999M28.7508 9.16659C28.1983 9.16659 27.6684 9.38608 27.2777 9.77678C26.887 10.1675 26.6675 10.6974 26.6675 11.2499C26.6675 11.8025 26.887 12.3324 27.2777 12.7231C27.6684 13.1138 28.1983 13.3333 28.7508 13.3333C29.3034 13.3333 29.8333 13.1138 30.224 12.7231C30.6147 12.3324 30.8342 11.8025 30.8342 11.2499C30.8342 10.6974 30.6147 10.1675 30.224 9.77678C29.8333 9.38608 29.3034 9.16659 28.7508 9.16659Z" fill="#111111"/>
</svg>
