<svg width="17" height="16" viewBox="0 0 17 16" fill="none" xmlns="http://www.w3.org/2000/svg">
<g clip-path="url(#clip0_3154_522)">
<path d="M7.78687 2.51579V1.88558C7.78687 1.70702 7.84813 1.55724 7.97065 1.43624C8.09316 1.31524 8.24461 1.25495 8.42498 1.25537C8.60578 1.25537 8.75744 1.31587 8.87995 1.43687C9.00247 1.55787 9.06352 1.70744 9.06309 1.88558V2.51579C9.06309 2.69435 9.00183 2.84413 8.87931 2.96513C8.7568 3.08613 8.60535 3.14642 8.42498 3.146C8.24418 3.146 8.09252 3.0855 7.97001 2.9645C7.84749 2.8435 7.78644 2.69393 7.78687 2.51579ZM7.78687 14.4897V13.8595C7.78687 13.681 7.84813 13.5312 7.97065 13.4102C8.09316 13.2892 8.24461 13.2289 8.42498 13.2293C8.60578 13.2293 8.75744 13.2898 8.87995 13.4108C9.00247 13.5318 9.06352 13.6814 9.06309 13.8595V14.4897C9.06309 14.6683 9.00183 14.8181 8.87931 14.9391C8.7568 15.0601 8.60535 15.1204 8.42498 15.12C8.24418 15.12 8.09252 15.0595 7.97001 14.9385C7.84749 14.8175 7.78644 14.6679 7.78687 14.4897ZM14.8061 8.81787H14.168C13.9872 8.81787 13.8355 8.75737 13.713 8.63637C13.5905 8.51537 13.5294 8.3658 13.5299 8.18766C13.5299 8.00911 13.5911 7.85933 13.7136 7.73833C13.8362 7.61733 13.9876 7.55704 14.168 7.55746H14.8061C14.9869 7.55746 15.1385 7.61796 15.2611 7.73896C15.3836 7.85996 15.4446 8.00953 15.4442 8.18766C15.4442 8.36622 15.3829 8.516 15.2604 8.637C15.1379 8.758 14.9865 8.81829 14.8061 8.81787ZM2.68199 8.81787H2.04387C1.86308 8.81787 1.71142 8.75737 1.5889 8.63637C1.46638 8.51537 1.40534 8.3658 1.40576 8.18766C1.40576 8.00911 1.46702 7.85933 1.58954 7.73833C1.71206 7.61733 1.8635 7.55704 2.04387 7.55746H2.68199C2.86278 7.55746 3.01444 7.61796 3.13696 7.73896C3.25948 7.85996 3.32052 8.00953 3.3201 8.18766C3.3201 8.36622 3.25884 8.516 3.13632 8.637C3.0138 8.758 2.86236 8.81829 2.68199 8.81787ZM13.3703 4.2016L13.147 4.42217C13.03 4.53771 12.8837 4.59548 12.708 4.59548C12.5323 4.59548 12.3808 4.53246 12.2536 4.40641C12.1367 4.29088 12.0754 4.14635 12.0699 3.97283C12.0643 3.79931 12.1203 3.64974 12.2377 3.52412L12.477 3.28779C12.594 3.16175 12.7429 3.09873 12.9237 3.09873C13.1045 3.09873 13.2587 3.16175 13.3863 3.28779C13.5139 3.41384 13.5752 3.56614 13.5701 3.7447C13.565 3.92325 13.4984 4.07556 13.3703 4.2016ZM4.61227 12.8512L4.37298 13.0875C4.25599 13.2136 4.1071 13.2766 3.9263 13.2766C3.7455 13.2766 3.59129 13.2136 3.46367 13.0875C3.33605 12.9615 3.27479 12.8092 3.27989 12.6306C3.285 12.4521 3.35158 12.2998 3.47962 12.1737L3.70296 11.9532C3.81995 11.8376 3.96629 11.7799 4.14198 11.7799C4.31767 11.7799 4.46912 11.8429 4.59632 11.9689C4.7133 12.0845 4.77456 12.229 4.78009 12.4025C4.78562 12.576 4.72968 12.7256 4.61227 12.8512ZM12.461 13.0718L12.2377 12.8512C12.1207 12.7357 12.0622 12.5913 12.0622 12.4183C12.0622 12.2452 12.126 12.0954 12.2536 11.9689C12.3706 11.8534 12.517 11.7931 12.6927 11.788C12.8684 11.783 13.0198 11.838 13.147 11.9532L13.3863 12.1895C13.5139 12.305 13.5777 12.4521 13.5777 12.6306C13.5777 12.8092 13.5139 12.9615 13.3863 13.0875C13.2587 13.2136 13.1045 13.2741 12.9237 13.269C12.7429 13.264 12.5887 13.1982 12.461 13.0718ZM3.70296 4.42217L3.46367 4.18584C3.33605 4.0703 3.27224 3.92325 3.27224 3.7447C3.27224 3.56614 3.33605 3.41384 3.46367 3.28779C3.59129 3.16175 3.7455 3.10125 3.9263 3.10629C4.1071 3.11134 4.26131 3.17709 4.38893 3.30355L4.61227 3.52412C4.72926 3.63966 4.78775 3.78419 4.78775 3.95771C4.78775 4.13122 4.72394 4.28079 4.59632 4.40641C4.47933 4.52195 4.33299 4.58245 4.1573 4.58791C3.9816 4.59338 3.83016 4.53855 3.70296 4.42217ZM8.42498 11.9689C7.36146 11.9689 6.45747 11.6013 5.71301 10.866C4.96855 10.1308 4.59632 9.23801 4.59632 8.18766C4.59632 7.13732 4.96855 6.24452 5.71301 5.50928C6.45747 4.77404 7.36146 4.40641 8.42498 4.40641C9.4885 4.40641 10.3925 4.77404 11.1369 5.50928C11.8814 6.24452 12.2536 7.13732 12.2536 8.18766C12.2536 9.23801 11.8814 10.1308 11.1369 10.866C10.3925 11.6013 9.4885 11.9689 8.42498 11.9689Z" fill="#111111"/>
</g>
<defs>
<clipPath id="clip0_3154_522">
<rect width="15.3147" height="15.125" fill="white" transform="translate(0.767578 0.625)"/>
</clipPath>
</defs>
</svg>
