<svg width="40" height="40" viewBox="0 0 40 40" fill="none" xmlns="http://www.w3.org/2000/svg">
<path d="M37.4336 10.0001C36.1502 10.5834 34.7669 10.9667 33.3336 11.1501C34.8002 10.2667 35.9336 8.86675 36.4669 7.18341C35.0836 8.01675 33.5502 8.60008 31.9336 8.93341C30.6169 7.50008 28.7669 6.66675 26.6669 6.66675C22.7502 6.66675 19.5502 9.86675 19.5502 13.8167C19.5502 14.3834 19.6169 14.9334 19.7336 15.4501C13.8002 15.1501 8.51689 12.3001 5.00023 7.98341C4.38356 9.03341 4.03356 10.2667 4.03356 11.5667C4.03356 14.0501 5.28356 16.2501 7.21689 17.5001C6.03356 17.5001 4.93356 17.1667 3.96689 16.6667V16.7167C3.96689 20.1834 6.43356 23.0834 9.70023 23.7334C8.65144 24.0204 7.55039 24.0604 6.48356 23.8501C6.93624 25.2709 7.82279 26.5141 9.01859 27.405C10.2144 28.2958 11.6593 28.7896 13.1502 28.8167C10.6229 30.8175 7.49022 31.8989 4.26689 31.8834C3.70023 31.8834 3.13356 31.8501 2.56689 31.7834C5.73356 33.8167 9.50023 35.0001 13.5336 35.0001C26.6669 35.0001 33.8836 24.1001 33.8836 14.6501C33.8836 14.3334 33.8836 14.0334 33.8669 13.7167C35.2669 12.7167 36.4669 11.4501 37.4336 10.0001Z" fill="#111111"/>
</svg>
